<?xml version="1.0" encoding="UTF-8" standalone="no"?>
<svg
   xmlns:dc="http://purl.org/dc/elements/1.1/"
   xmlns:cc="http://creativecommons.org/ns#"
   xmlns:rdf="http://www.w3.org/1999/02/22-rdf-syntax-ns#"
   xmlns:svg="http://www.w3.org/2000/svg"
   xmlns="http://www.w3.org/2000/svg"
   xmlns:sodipodi="http://sodipodi.sourceforge.net/DTD/sodipodi-0.dtd"
   xmlns:inkscape="http://www.inkscape.org/namespaces/inkscape"
   inkscape:version="1.0 (4035a4fb49, 2020-05-01)"
   sodipodi:docname="cypherlogo.svg"
   version="1.1"
   viewBox="0 0 1280 1280"
   data-name="Layer 1"
   id="Layer_1">
  <metadata
     id="metadata78">
    <rdf:RDF>
      <cc:Work
         rdf:about="">
        <dc:format>image/svg+xml</dc:format>
        <dc:type
           rdf:resource="http://purl.org/dc/dcmitype/StillImage" />
      </cc:Work>
    </rdf:RDF>
  </metadata>
  <sodipodi:namedview
     inkscape:current-layer="Layer_1"
     inkscape:window-maximized="1"
     inkscape:window-y="-8"
     inkscape:window-x="-8"
     inkscape:cy="629.90626"
     inkscape:cx="691.25709"
     inkscape:zoom="0.35355339"
     showgrid="false"
     id="namedview76"
     inkscape:window-height="705"
     inkscape:window-width="1360"
     inkscape:pageshadow="2"
     inkscape:pageopacity="0"
     guidetolerance="10"
     gridtolerance="10"
     objecttolerance="10"
     borderopacity="1"
     bordercolor="#666666"
     pagecolor="#ffffff" />
  <defs
     id="defs47">
    <style
       id="style45">.cls-1{fill:#fff;}</style>
  </defs>
  <path
     style="stroke-width:1.61798"
     id="path51"
     d="m 471.5791,517.66321 c -26.96522,0 -53.74879,-3.02502 -76.66355,-9.25281 C 340.53711,493.63213 292.67088,455.66338 263.59152,404.24043 231.98644,348.35224 224.53251,282.45038 242.60204,218.67616 255.82553,172.00444 283.75693,128.92657 323.37769,94.100549 A 328.65887,328.65887 0 0 1 449.88334,25.644599 C 510.12301,8.5159892 582.19025,11.743256 637.95985,34.06708 a 40.772283,40.772283 0 1 1 -30.30234,75.70519 C 569.03067,94.31142 514.58667,92.024279 472.18422,104.08012 a 246.6243,246.6243 0 0 0 -94.97007,51.26725 c -27.80269,24.43873 -47.22158,54.02372 -56.15601,85.5577 -12.08665,42.65916 -7.28722,86.41091 13.51423,123.19464 18.43293,32.59656 48.22254,56.51388 81.72921,65.62054 38.25948,10.39756 97.63485,7.96665 129.65706,-5.30742 a 40.772526,40.772526 0 0 1 31.22667,75.3292 c -28.4086,11.77634 -67.18792,17.91961 -105.60621,17.92118 z"
     class="cls-1" />
  <path
     style="stroke-width:1.61798"
     id="path53"
     d="m 416.9439,335.41474 a 40.775681,40.775681 0 0 1 -22.95901,-74.49572 c 30.93278,-21.02738 78.72158,-49.35543 136.35493,-52.58104 a 40.772287,40.772287 0 0 1 4.55689,81.41715 c -37.39283,2.09279 -72.16513,23.03327 -95.06805,38.60236 a 40.589258,40.589258 0 0 1 -22.88476,7.05725 z"
     class="cls-1" />
  <path
     style="stroke-width:1.61798"
     id="path55"
     d="m 754.52063,523.87283 a 40.59073,40.59073 0 0 1 -24.7832,-8.42091 C 688.20879,483.60115 645.8032,417.60456 631.09846,361.93678 616.7073,307.45408 625.65674,247.01611 655.65174,196.11933 688.24988,140.80471 741.59418,101.39967 805.85981,85.162224 852.88703,73.277837 904.16304,75.929169 954.13233,92.82788 a 328.64691,328.64691 0 0 1 122.53807,75.33077 c 44.9526,43.60561 78.1907,107.63029 86.7451,167.08782 a 40.771834,40.771834 0 1 1 -80.7124,11.61343 c -5.9252,-41.18181 -31.1667,-89.47467 -62.8105,-120.17122 a 246.63523,246.63523 0 0 0 -91.8834,-56.61421 c -35.06619,-11.85833 -70.39626,-13.88316 -102.17278,-5.85254 -42.98701,10.86133 -78.47667,36.89275 -99.93226,73.29963 -19.01286,32.26238 -24.83216,70.01942 -15.96488,103.59008 10.125,38.33218 41.91731,88.53847 69.42452,109.63381 a 40.774209,40.774209 0 0 1 -24.84322,73.12738 z"
     class="cls-1" />
  <path
     style="stroke-width:1.61798"
     id="path57"
     d="m 924.60264,392.28728 a 40.7335,40.7335 0 0 1 -34.15292,-18.45032 c -20.50755,-31.33412 -56.03038,-50.98053 -80.96685,-63.03318 a 40.772316,40.772316 0 0 1 35.48491,-73.41899 c 33.67733,16.27696 82.10448,43.50212 113.71194,91.79813 a 40.778367,40.778367 0 0 1 -34.07709,63.10438 z"
     class="cls-1" />
  <path
     style="stroke-width:1.61798"
     id="path59"
     d="m 1140.1318,949.62382 a 40.774548,40.774548 0 0 1 -25.2334,-72.82165 c 32.704,-25.72332 61.9066,-71.72981 72.6668,-114.47826 a 246.63282,246.63282 0 0 0 3.0874,-107.88309 c -7.2635,-36.29707 -23.1763,-67.90689 -46.0176,-91.41181 -30.9011,-31.79707 -71.1926,-49.5166 -113.4496,-49.89346 -37.44261,-0.29704 -73.05233,13.50554 -97.68865,37.96956 -28.13607,27.93382 -55.71912,80.56946 -60.23334,114.93963 a 40.773067,40.773067 0 1 1 -80.85149,-10.62113 c 6.81795,-51.8938 42.77055,-121.61776 83.62924,-162.18412 39.52669,-39.24703 95.49703,-61.65381 153.83904,-61.65381 q 1.0168,0 2.032,0.009 c 64.204,0.57276 125.0046,27.06715 171.2007,74.60317 33.8084,34.78888 57.149,80.5181 67.5,132.24361 a 328.66856,328.66856 0 0 1 -3.9691,143.78674 c -15.2855,60.73104 -54.1138,121.52847 -101.3322,158.6677 a 40.60301,40.60301 0 0 1 -25.1798,8.72823 z"
     class="cls-1" />
  <path
     style="stroke-width:1.61798"
     id="path61"
     d="m 1031.7715,782.95787 a 40.788835,40.788835 0 0 1 -36.36182,-59.16206 c 16.88292,-33.42768 16.13392,-74.01459 14.10362,-101.63398 a 40.772558,40.772558 0 0 1 81.3255,-5.98051 c 2.7429,37.30356 3.3797,92.8536 -22.6422,144.37608 a 40.773303,40.773303 0 0 1 -36.4251,22.40047 z"
     class="cls-1" />
  <path
     style="stroke-width:1.61798"
     id="path63"
     d="m 748.51167,1264.6887 c -37.411,0 -74.76515,-6.5225 -106.7581,-19.3273 a 40.773044,40.773044 0 0 1 30.30231,-75.7068 c 38.62761,15.4609 93.0685,17.7488 135.47564,5.693 a 246.63187,246.63187 0 0 0 94.9693,-51.2665 c 27.80267,-24.4388 47.22156,-54.0253 56.15678,-85.5601 12.08586,-42.65838 7.28564,-86.41014 -13.51579,-123.19543 -18.43453,-32.59499 -48.22333,-56.51232 -81.72844,-65.61818 -38.25474,-10.39519 -97.63327,-7.96507 -129.66101,5.30742 a 40.772348,40.772348 0 1 1 -31.22193,-75.33079 c 48.34816,-20.03827 126.70948,-23.76562 182.26743,-8.6666 54.37765,14.77827 102.24388,52.74545 131.32484,104.16838 31.6058,55.88819 39.0605,121.79076 20.991,185.565 -13.2235,46.6733 -41.15572,89.7504 -80.77723,124.578 a 328.66345,328.66345 0 0 1 -126.50565,68.4559 299.82938,299.82938 0 0 1 -81.31915,10.904 z"
     class="cls-1" />
  <path
     style="stroke-width:1.61798"
     id="path65"
     d="m 747.0596,1071.1539 a 40.772849,40.772849 0 0 1 -2.2421,-81.48197 c 37.39204,-2.09205 72.16434,-23.03249 95.06725,-38.60078 a 40.771871,40.771871 0 1 1 45.84379,67.43685 c -30.93278,21.0289 -78.72158,49.3562 -136.35415,52.581 q -1.16372,0.066 -2.31479,0.065 z"
     class="cls-1" />
  <path
     style="stroke-width:1.61798"
     id="path67"
     d="m 414.17963,1201.5733 a 276.82157,276.82157 0 0 1 -88.59772,-14.9726 328.65188,328.65188 0 0 1 -122.53734,-75.3308 c -44.9534,-43.6064 -78.19227,-107.6303 -86.74511,-167.08938 a 40.772396,40.772396 0 1 1 80.71403,-11.61025 c 5.92364,41.18101 31.16424,89.47233 62.80804,120.16803 a 246.62388,246.62388 0 0 0 91.88424,56.615 c 35.06541,11.8599 70.39705,13.884 102.17357,5.8525 42.98623,-10.8613 78.47509,-36.8927 99.92988,-73.2972 19.01362,-32.2632 24.83217,-70.02179 15.96489,-103.59325 -10.12263,-38.32901 -41.91574,-88.53373 -69.42452,-109.63223 A 40.772882,40.772882 0 0 1 549.976,763.97664 c 41.53259,31.85394 83.93814,97.85133 98.63978,153.51514 14.39116,54.48351 5.44172,114.92222 -24.55407,165.81742 -32.5974,55.3147 -85.94165,94.7197 -150.20498,110.9564 a 243.43125,243.43125 0 0 1 -59.6771,7.3077 z"
     class="cls-1" />
  <path
     style="stroke-width:1.61798"
     id="path69"
     d="m 452.45884,1046.1147 a 40.615663,40.615663 0 0 1 -17.7148,-4.0718 c -33.67812,-16.2793 -82.10685,-43.50685 -113.71115,-91.79655 a 40.772752,40.772752 0 0 1 68.23158,-44.65554 c 20.50439,31.33093 56.02961,50.97894 80.96763,63.03318 a 40.778852,40.778852 0 0 1 -17.77326,77.49071 z"
     class="cls-1" />
  <path
     style="stroke-width:1.61798"
     id="path71"
     d="m 249.83238,847.84289 c -0.68022,0 -1.35252,-0.003 -2.03432,-0.009 C 183.59484,847.25986 122.79584,820.76547 76.59972,773.22947 42.792072,738.44133 19.451446,692.71136 9.1020663,640.98663 A 328.66502,328.66502 0 0 1 13.070384,497.20069 C 28.357427,436.46885 67.185742,375.67142 114.40258,338.53299 a 40.772124,40.772124 0 1 1 50.41328,64.09341 c -32.70401,25.72333 -61.90662,71.72904 -72.666805,114.47827 a 246.64114,246.64114 0 0 0 -3.087426,107.8823 c 7.262731,36.29707 23.175481,67.90768 46.017561,91.41103 30.90038,31.79705 71.19025,49.51738 113.44727,49.89344 37.40231,0.38237 73.05313,-13.50475 97.69174,-37.96877 28.13369,-27.93382 55.71669,-80.57024 60.23334,-114.94115 a 40.772396,40.772396 0 0 1 80.84992,10.62272 c -6.81874,51.89538 -42.77134,121.61855 -83.62842,162.18491 -39.52515,39.24538 -95.50181,61.65059 -153.84066,61.65374 z"
     class="cls-1" />
  <path
     style="stroke-width:1.61798"
     id="path73"
     d="m 229.49393,701.03193 a 40.775519,40.775519 0 0 1 -40.6201,-37.78546 c -2.74297,-37.30198 -3.37975,-92.85204 22.64221,-144.3753 a 40.772468,40.772468 0 1 1 72.78847,36.76159 c -16.88369,33.42926 -16.13633,74.0146 -14.10517,101.63478 a 40.771943,40.771943 0 0 1 -37.67253,43.65226 q -1.52632,0.11135 -3.03288,0.11213 z"
     class="cls-1" />
</svg>
