<svg id="Layer_1" data-name="Layer 1" xmlns="http://www.w3.org/2000/svg" viewBox="0 0 1280 1280"><defs><style>.cls-1{fill:#fff;}</style></defs><rect width="1280" height="1280"/><path class="cls-1" d="M535.85205,564.28027c-16.666,0-33.21973-1.86963-47.38232-5.71875-33.60889-9.13379-63.19287-32.60058-81.16553-64.38281-19.53369-34.542-24.14063-75.273-12.97266-114.689,8.17285-28.84571,25.436-55.47022,49.92383-76.99463a203.12939,203.12939,0,0,1,78.1875-42.30957c37.23145-10.58643,81.773-8.5918,116.2417,5.20556a25.19953,25.19953,0,1,1-18.72852,46.79c-23.87353-9.55566-57.52294-10.96924-83.73-3.51806a152.42748,152.42748,0,0,0-58.69677,31.686c-17.1836,15.10449-29.18555,33.38965-34.70752,52.8794-7.47022,26.36572-4.50391,53.40673,8.35254,76.14111,11.39257,20.14648,29.8042,34.92871,50.51318,40.55713,23.64648,6.42627,60.34375,4.92383,80.13525-3.28028a25.19968,25.19968,0,0,1,19.29981,46.55762C583.56445,560.48242,559.59668,564.2793,535.85205,564.28027Z"/><path class="cls-1" d="M502.08447,451.64062a25.20163,25.20163,0,0,1-14.18994-46.04248c19.11817-12.99609,48.6543-30.50439,84.2749-32.498a25.19953,25.19953,0,0,1,2.81641,50.32031c-23.11084,1.29346-44.60205,14.23584-58.75732,23.8584A25.08641,25.08641,0,0,1,502.08447,451.64062Z"/><path class="cls-1" d="M710.72559,568.11816a25.08732,25.08732,0,0,1-15.31739-5.20459c-25.667-19.68554-51.876-60.47509-60.96435-94.88086-8.89453-33.67333-3.36328-71.02734,15.17529-102.48437,20.14746-34.1875,53.11719-58.542,92.83691-68.57764,29.06543-7.34521,60.75684-5.70654,91.64063,4.7378A203.122,203.122,0,0,1,909.832,348.26709c27.7832,26.95068,48.32617,66.52148,53.61328,103.26953a25.19925,25.19925,0,1,1-49.88476,7.17774c-3.66211-25.45264-19.2627-55.3003-38.82032-74.27247a152.43424,152.43424,0,0,0-56.78906-34.99072c-21.67285-7.3291-43.50879-8.58056-63.14844-3.61719-26.56835,6.7129-48.50293,22.80176-61.76367,45.30323-11.751,19.93994-15.34765,43.27588-9.86718,64.02441,6.25781,23.69141,25.90722,54.72168,42.9082,67.75977a25.20072,25.20072,0,0,1-15.35449,45.19677Z"/><path class="cls-1" d="M815.8457,486.791a25.17556,25.17556,0,0,1-21.1084-11.40332c-12.6748-19.36622-34.62988-31.50879-50.042-38.958a25.19953,25.19953,0,0,1,21.93164-45.377c20.81446,10.06006,50.74512,26.88672,70.28028,56.73633a25.20329,25.20329,0,0,1-21.06153,39.002Z"/><path class="cls-1" d="M949.05469,831.25586A25.20093,25.20093,0,0,1,933.459,786.24805c20.2129-15.89844,38.26172-44.333,44.91211-70.75391a152.43275,152.43275,0,0,0,1.90821-66.67773c-4.48926-22.4336-14.32422-41.97022-28.44141-56.49756-19.09863-19.65235-44.001-30.604-70.11816-30.83692-23.14161-.18359-45.15039,8.34717-60.377,23.46729-17.38965,17.26465-34.4375,49.79639-37.22754,71.03906a25.2,25.2,0,1,1-49.9707-6.56445c4.21387-32.07324,26.43457-75.16651,51.6875-100.23877,24.42969-24.25684,59.02246-38.10547,95.08106-38.10547q.62841,0,1.25586.00537c39.68164.354,77.25976,16.729,105.81152,46.10889,20.89551,21.50146,35.32129,49.76465,41.71875,81.73388a203.13538,203.13538,0,0,1-2.45313,88.86817c-9.44726,37.53515-33.44531,75.11133-62.6289,98.06543A25.09491,25.09491,0,0,1,949.05469,831.25586Z"/><path class="cls-1" d="M882.082,728.24707a25.20976,25.20976,0,0,1-22.47363-36.56543c10.43457-20.66016,9.97168-45.74512,8.7168-62.81543a25.1997,25.1997,0,0,1,50.26367-3.69629c1.69531,23.05567,2.08886,57.38867-13.99414,89.23242A25.20016,25.20016,0,0,1,882.082,728.24707Z"/><path class="cls-1" d="M707.01172,1025.9834c-23.12207,0-46.209-4.03125-65.98242-11.94531a25.2,25.2,0,0,1,18.72851-46.791c23.874,9.55566,57.52149,10.96973,83.73145,3.51855a152.43216,152.43216,0,0,0,58.69629-31.68554c17.18359-15.10449,29.18554-33.39063,34.708-52.88086,7.46973-26.36524,4.50293-53.40625-8.35351-76.1416-11.39356-20.14551-29.80469-34.92774-50.5127-40.55567-23.64355-6.4248-60.34277-4.92285-80.13769,3.28028a25.19957,25.19957,0,1,1-19.29688-46.5586c29.88184-12.38476,78.31348-14.68847,112.65137-5.35644,33.6084,9.13379,63.19238,32.59961,81.166,64.38183,19.53418,34.542,24.1416,75.27344,12.97363,114.68946-8.17285,28.84668-25.43652,55.4707-49.92481,76.99609a203.13222,203.13222,0,0,1-78.1875,42.30957A185.31117,185.31117,0,0,1,707.01172,1025.9834Z"/><path class="cls-1" d="M706.11426,906.36816a25.19988,25.19988,0,0,1-1.38574-50.36035c23.11035-1.293,44.60156-14.23535,58.75683-23.85742a25.19926,25.19926,0,1,1,28.334,41.67969c-19.11817,12.99707-48.6543,30.50488-84.27442,32.498Q706.82569,906.36914,706.11426,906.36816Z"/><path class="cls-1" d="M500.376,986.97461a171.09107,171.09107,0,0,1-54.7583-9.25391,203.12507,203.12507,0,0,1-75.73487-46.55859c-27.78369-26.95117-48.32715-66.52149-53.61328-103.27051a25.1996,25.1996,0,1,1,49.88574-7.17578c3.66114,25.45215,19.26123,55.29883,38.81885,74.27051a152.42722,152.42722,0,0,0,56.78955,34.99121c21.67237,7.33008,43.50928,8.58105,63.14893,3.61719,26.56787-6.71289,48.50195-22.80176,61.7622-45.30176,11.75147-19.94043,15.34766-43.27735,9.86719-64.02637-6.25635-23.68945-25.90625-54.71875-42.9082-67.75879a25.1999,25.1999,0,0,1,30.67187-39.99219c25.66944,19.6875,51.87842,60.47754,60.96485,94.88086,8.89453,33.67383,3.36328,71.02832-15.17578,102.48438-20.147,34.1875-53.1167,58.542-92.835,68.57715A150.454,150.454,0,0,1,500.376,986.97461Z"/><path class="cls-1" d="M524.03467,890.89258a25.10273,25.10273,0,0,1-10.94873-2.5166c-20.81494-10.06153-50.74658-26.88965-70.27979-56.73536a25.19982,25.19982,0,0,1,42.1709-27.5996c12.67285,19.36425,34.6294,31.50781,50.04248,38.958a25.20359,25.20359,0,0,1-10.98486,47.89356Z"/><path class="cls-1" d="M398.80029,768.34961c-.42041,0-.83593-.00195-1.25732-.00586-39.68115-.35449-77.2583-16.72949-105.81006-46.10937-20.895-21.501-35.3208-49.76465-41.71729-81.7334a203.13319,203.13319,0,0,1,2.45264-88.86768c9.44824-37.53564,33.44629-75.11182,62.62891-98.06543a25.19943,25.19943,0,1,1,31.1582,39.61328c-20.21289,15.89844-38.26172,44.33252-44.91211,70.75391a152.43789,152.43789,0,0,0-1.9082,66.67724c4.48877,22.4336,14.32373,41.97071,28.4414,56.49708,19.09815,19.65234,43.99952,30.60449,70.1167,30.83691,23.1167.23633,45.15088-8.34668,60.37891-23.4668,17.38818-17.26465,34.436-49.79687,37.22754-71.04a25.1996,25.1996,0,0,1,49.96973,6.56543c-4.21436,32.07422-26.43506,75.167-51.687,100.23926C469.45361,754.5,434.85693,768.34766,398.80029,768.34961Z"/><path class="cls-1" d="M386.23,677.6123a25.20153,25.20153,0,0,1-25.10547-23.35351c-1.69531-23.05469-2.08887-57.3877,13.99414-89.23193a25.19964,25.19964,0,1,1,44.98731,22.7207c-10.43506,20.66113-9.97315,45.74512-8.71778,62.81592A25.19932,25.19932,0,0,1,388.10449,677.543Q387.16114,677.61182,386.23,677.6123Z"/></svg>